<mxfile host="app.diagrams.net" agent="Mozilla/5.0 (Windows NT 10.0; Win64; x64) AppleWebKit/537.36 (KHTML, like Gecko) Chrome/134.0.0.0 Safari/537.36" version="26.1.1">
  <diagram name="Page-1" id="vy61-RqgPXC1NIyI_cRd">
    <mxGraphModel dx="2111" dy="1125" grid="1" gridSize="10" guides="1" tooltips="1" connect="1" arrows="1" fold="1" page="0" pageScale="1" pageWidth="1100" pageHeight="850" math="0" shadow="0">
      <root>
        <mxCell id="0" />
        <mxCell id="1" parent="0" />
        <mxCell id="ry4E1kvPjeANahoyZSAm-1" value="&lt;font style=&quot;font-size: 15px;&quot;&gt;LCD&lt;/font&gt;" style="rounded=1;whiteSpace=wrap;html=1;" vertex="1" parent="1">
          <mxGeometry x="-600" y="-280" width="120" height="40" as="geometry" />
        </mxCell>
        <mxCell id="ry4E1kvPjeANahoyZSAm-2" value="&lt;span style=&quot;font-size: 15px;&quot;&gt;Rotary Encoder&lt;/span&gt;" style="rounded=1;whiteSpace=wrap;html=1;" vertex="1" parent="1">
          <mxGeometry x="-360" y="-120" width="120" height="40" as="geometry" />
        </mxCell>
        <mxCell id="ry4E1kvPjeANahoyZSAm-3" value="&lt;span style=&quot;font-size: 15px;&quot;&gt;Fingerprint Sensor&lt;/span&gt;" style="rounded=1;whiteSpace=wrap;html=1;" vertex="1" parent="1">
          <mxGeometry x="-360" y="-280" width="120" height="40" as="geometry" />
        </mxCell>
        <mxCell id="ry4E1kvPjeANahoyZSAm-4" value="&lt;span style=&quot;font-size: 15px;&quot;&gt;IMU&lt;/span&gt;" style="rounded=1;whiteSpace=wrap;html=1;" vertex="1" parent="1">
          <mxGeometry x="-360" y="-200" width="120" height="40" as="geometry" />
        </mxCell>
        <mxCell id="ry4E1kvPjeANahoyZSAm-5" value="&lt;span style=&quot;font-size: 15px;&quot;&gt;Buzzer&lt;/span&gt;" style="rounded=1;whiteSpace=wrap;html=1;" vertex="1" parent="1">
          <mxGeometry x="-600" y="-200" width="120" height="40" as="geometry" />
        </mxCell>
        <mxCell id="ry4E1kvPjeANahoyZSAm-6" value="&lt;span style=&quot;font-size: 15px;&quot;&gt;Servo&lt;/span&gt;" style="rounded=1;whiteSpace=wrap;html=1;" vertex="1" parent="1">
          <mxGeometry x="-600" y="-120" width="120" height="40" as="geometry" />
        </mxCell>
        <mxCell id="ry4E1kvPjeANahoyZSAm-8" value="" style="swimlane;startSize=0;" vertex="1" parent="1">
          <mxGeometry x="-640" y="-320" width="200" height="280" as="geometry" />
        </mxCell>
        <mxCell id="ry4E1kvPjeANahoyZSAm-9" value="&lt;span style=&quot;font-size: 15px;&quot;&gt;Actuator Control Task&lt;/span&gt;" style="text;html=1;align=center;verticalAlign=middle;whiteSpace=wrap;rounded=0;" vertex="1" parent="1">
          <mxGeometry x="-620" y="-340" width="160" height="20" as="geometry" />
        </mxCell>
        <mxCell id="ry4E1kvPjeANahoyZSAm-10" value="" style="swimlane;startSize=0;" vertex="1" parent="1">
          <mxGeometry x="-400" y="-320" width="200" height="280" as="geometry" />
        </mxCell>
        <mxCell id="ry4E1kvPjeANahoyZSAm-11" value="&lt;span style=&quot;font-size: 15px;&quot;&gt;Sensor Reading Task&lt;/span&gt;" style="text;html=1;align=center;verticalAlign=middle;whiteSpace=wrap;rounded=0;" vertex="1" parent="1">
          <mxGeometry x="-380" y="-340" width="160" height="20" as="geometry" />
        </mxCell>
        <mxCell id="ry4E1kvPjeANahoyZSAm-13" value="" style="swimlane;startSize=0;" vertex="1" parent="1">
          <mxGeometry x="-160" y="-320" width="200" height="280" as="geometry" />
        </mxCell>
        <mxCell id="ry4E1kvPjeANahoyZSAm-14" value="&lt;span style=&quot;font-size: 15px;&quot;&gt;Wifi Task&lt;/span&gt;" style="text;html=1;align=center;verticalAlign=middle;whiteSpace=wrap;rounded=0;" vertex="1" parent="ry4E1kvPjeANahoyZSAm-13">
          <mxGeometry x="20" y="120" width="160" height="20" as="geometry" />
        </mxCell>
        <mxCell id="ry4E1kvPjeANahoyZSAm-16" value="" style="swimlane;startSize=0;" vertex="1" parent="1">
          <mxGeometry x="-400" y="40" width="200" height="160" as="geometry" />
        </mxCell>
        <mxCell id="ry4E1kvPjeANahoyZSAm-17" value="&lt;span style=&quot;font-size: 15px;&quot;&gt;System Control Task&lt;/span&gt;" style="text;html=1;align=center;verticalAlign=middle;whiteSpace=wrap;rounded=0;" vertex="1" parent="ry4E1kvPjeANahoyZSAm-16">
          <mxGeometry x="20" y="70" width="160" height="20" as="geometry" />
        </mxCell>
        <mxCell id="ry4E1kvPjeANahoyZSAm-19" value="" style="endArrow=classic;html=1;rounded=0;exitX=0.5;exitY=1;exitDx=0;exitDy=0;entryX=0;entryY=0.5;entryDx=0;entryDy=0;" edge="1" parent="1" source="ry4E1kvPjeANahoyZSAm-8" target="ry4E1kvPjeANahoyZSAm-16">
          <mxGeometry relative="1" as="geometry">
            <mxPoint x="-440" y="50" as="sourcePoint" />
            <mxPoint x="-340" y="50" as="targetPoint" />
          </mxGeometry>
        </mxCell>
        <mxCell id="ry4E1kvPjeANahoyZSAm-20" value="Label" style="edgeLabel;resizable=0;html=1;;align=center;verticalAlign=middle;" connectable="0" vertex="1" parent="ry4E1kvPjeANahoyZSAm-19">
          <mxGeometry relative="1" as="geometry" />
        </mxCell>
        <mxCell id="ry4E1kvPjeANahoyZSAm-21" value="&lt;font style=&quot;font-size: 12px;&quot;&gt;Motor Status info&lt;/font&gt;" style="edgeLabel;html=1;align=center;verticalAlign=middle;resizable=0;points=[];" vertex="1" connectable="0" parent="ry4E1kvPjeANahoyZSAm-19">
          <mxGeometry x="0.0047" y="-1" relative="1" as="geometry">
            <mxPoint as="offset" />
          </mxGeometry>
        </mxCell>
        <mxCell id="ry4E1kvPjeANahoyZSAm-22" value="" style="endArrow=classic;html=1;rounded=0;exitX=0.5;exitY=1;exitDx=0;exitDy=0;entryX=0.5;entryY=0;entryDx=0;entryDy=0;" edge="1" parent="1" source="ry4E1kvPjeANahoyZSAm-10" target="ry4E1kvPjeANahoyZSAm-16">
          <mxGeometry relative="1" as="geometry">
            <mxPoint x="-410" y="40" as="sourcePoint" />
            <mxPoint x="-310" y="40" as="targetPoint" />
          </mxGeometry>
        </mxCell>
        <mxCell id="ry4E1kvPjeANahoyZSAm-23" value="&lt;font style=&quot;font-size: 12px;&quot;&gt;Sensor Data&lt;/font&gt;" style="edgeLabel;resizable=0;html=1;;align=center;verticalAlign=middle;" connectable="0" vertex="1" parent="ry4E1kvPjeANahoyZSAm-22">
          <mxGeometry relative="1" as="geometry" />
        </mxCell>
        <mxCell id="ry4E1kvPjeANahoyZSAm-25" value="" style="endArrow=classic;html=1;rounded=0;entryX=1;entryY=0.25;entryDx=0;entryDy=0;" edge="1" parent="1" target="ry4E1kvPjeANahoyZSAm-16">
          <mxGeometry relative="1" as="geometry">
            <mxPoint x="-50" y="-39" as="sourcePoint" />
            <mxPoint x="-250" y="30" as="targetPoint" />
          </mxGeometry>
        </mxCell>
        <mxCell id="ry4E1kvPjeANahoyZSAm-26" value="&lt;font style=&quot;font-size: 12px;&quot;&gt;User Control Info&lt;/font&gt;" style="edgeLabel;resizable=0;html=1;;align=center;verticalAlign=middle;" connectable="0" vertex="1" parent="ry4E1kvPjeANahoyZSAm-25">
          <mxGeometry relative="1" as="geometry" />
        </mxCell>
        <mxCell id="ry4E1kvPjeANahoyZSAm-27" value="" style="endArrow=classic;html=1;rounded=0;" edge="1" parent="1">
          <mxGeometry relative="1" as="geometry">
            <mxPoint x="-200" y="130" as="sourcePoint" />
            <mxPoint y="-40" as="targetPoint" />
          </mxGeometry>
        </mxCell>
        <mxCell id="ry4E1kvPjeANahoyZSAm-28" value="Label" style="edgeLabel;resizable=0;html=1;;align=center;verticalAlign=middle;" connectable="0" vertex="1" parent="ry4E1kvPjeANahoyZSAm-27">
          <mxGeometry relative="1" as="geometry" />
        </mxCell>
        <mxCell id="ry4E1kvPjeANahoyZSAm-31" value="&lt;font style=&quot;font-size: 12px;&quot;&gt;System Info&lt;/font&gt;" style="edgeLabel;html=1;align=center;verticalAlign=middle;resizable=0;points=[];" vertex="1" connectable="0" parent="ry4E1kvPjeANahoyZSAm-27">
          <mxGeometry x="0.0013" y="-1" relative="1" as="geometry">
            <mxPoint as="offset" />
          </mxGeometry>
        </mxCell>
        <mxCell id="ry4E1kvPjeANahoyZSAm-33" value="" style="swimlane;startSize=0;" vertex="1" parent="1">
          <mxGeometry x="-680" y="-400" width="760" height="640" as="geometry" />
        </mxCell>
      </root>
    </mxGraphModel>
  </diagram>
</mxfile>
